HIERARCHY
ROOT hip
{
	OFFSET 0.000000 0.000000 0.000000
	CHANNELS 6 Xposition Yposition Zposition Xrotation Zrotation Yrotation 
	JOINT abdomen
	{
		OFFSET 0.000000 3.422050 0.000000
		CHANNELS 3 Xrotation Zrotation Yrotation 
		JOINT chest
		{
			OFFSET 0.000000 8.486693 -0.684411
			CHANNELS 3 Xrotation Zrotation Yrotation 
			JOINT neck
			{
				OFFSET 0.000000 10.266162 -0.273764
				CHANNELS 3 Xrotation Zrotation Yrotation 
				JOINT head
				{
					OFFSET 0.000000 3.148285 0.000000
					CHANNELS 3 Xrotation Zrotation Yrotation 
					End Site
					{
						OFFSET 0.000000 3.148289 0.000000
					}
				}
			}
			JOINT lCollar
			{
				OFFSET 3.422053 6.707223 -0.821293
				CHANNELS 3 Yrotation Zrotation Xrotation 
				JOINT lShldr
				{
					OFFSET 3.285171 0.000000 0.000000
					CHANNELS 3 Zrotation Yrotation Xrotation 
					JOINT lForeArm
					{
						OFFSET 10.129278 0.000000 0.000000
						CHANNELS 3 Yrotation Zrotation Xrotation 
						JOINT lHand
						{
							OFFSET 8.486692 0.000000 0.000000
							CHANNELS 3 Zrotation Yrotation Xrotation 
							End Site
							{
								OFFSET 4.106464 0.000000 0.000000
							}
						}
					}
				}
			}
			JOINT rCollar
			{
				OFFSET -3.558935 6.707223 -0.821293
				CHANNELS 3 Yrotation Zrotation Xrotation 
				JOINT rShldr
				{
					OFFSET -3.148289 0.000000 0.000000
					CHANNELS 3 Zrotation Yrotation Xrotation 
					JOINT rForeArm
					{
						OFFSET -10.266159 0.000000 0.000000
						CHANNELS 3 Yrotation Zrotation Xrotation 
						JOINT rHand
						{
							OFFSET -8.349810 0.000000 0.000000
							CHANNELS 3 Zrotation Yrotation Xrotation 
							End Site
							{
								OFFSET -4.106464 0.000000 0.000000
							}
						}
					}
				}
			}
		}
	}
	JOINT lThigh
	{
		OFFSET 5.338403 -1.642589 1.368821
		CHANNELS 3 Xrotation Zrotation Yrotation 
		JOINT lShin
		{
			OFFSET -2.053232 -20.121670 0.000000
			CHANNELS 3 Xrotation Zrotation Yrotation 
			JOINT lFoot
			{
				OFFSET 0.000000 -19.300380 -1.231939
				CHANNELS 3 Xrotation Yrotation Zrotation 
				End Site
				{
					OFFSET 0.000000 -2.463878 4.653993
				}
			}
		}
	}
	JOINT rThigh
	{
		OFFSET -5.338403 -1.642589 1.368821
		CHANNELS 3 Xrotation Zrotation Yrotation 
		JOINT rShin
		{
			OFFSET 2.053232 -20.121670 0.000000
			CHANNELS 3 Xrotation Zrotation Yrotation 
			JOINT rFoot
			{
				OFFSET 0.000000 -19.300380 -1.231939
				CHANNELS 3 Xrotation Yrotation Zrotation 
				End Site
				{
					OFFSET 0.000000 -2.463878 4.653993
				}
			}
		}
	}
}
MOTION
Frames: 20
Frame Time: 0.055410
0.000000 5.071640 -0.192045 -89.002243 0.000000 0.000000 -4.088358 -0.876341 -1.002796 14.957311 0.288445 -1.291827 -6.537353 5.126641 0.649719 -2.781971 5.681680 5.502944 -2.249322 3.621830 -9.524670 5.734199 -32.832619 -23.696424 -25.673330 6.101105 -36.323902 -35.537704 -24.312853 -30.247398 4.397977 -3.818333 -9.343116 -6.845164 35.517349 -24.147945 30.032919 -4.674633 -33.116806 19.779230 17.314514 -20.317509 -54.658173 15.588023 2.092300 128.881622 4.934641 -0.202170 8.565678 -1.119386 8.635531 -44.155579 -15.810779 -4.200192 113.557739 -3.573772 0.975628 8.601192 1.802717 -8.571522 
0.000000 5.071640 -0.164610 -89.002243 0.000000 0.000000 -3.536616 -0.856491 -0.967528 14.037644 0.223221 -1.271114 -4.735706 4.383301 0.625614 0.619188 4.976785 4.600198 -3.089142 2.889679 -9.161391 5.587296 -35.270561 -23.831738 -30.009260 3.175031 -36.968819 -36.352470 -24.721558 -27.688204 4.897846 -3.044450 -9.000063 -6.560487 37.568932 -24.238415 33.831940 -2.093858 -34.651539 22.710182 18.823366 -19.427874 -54.757694 14.805326 1.744963 128.881622 4.934641 -0.202170 8.569256 -0.827961 7.777663 -44.294300 -15.054097 -3.676432 113.557739 -3.573772 0.975628 8.592539 1.414364 -7.724534 
0.000000 5.071640 -0.137175 -89.002243 0.000000 0.000000 -2.984903 -0.836982 -0.932073 13.118137 0.158351 -1.249360 -2.936950 3.641728 0.578177 3.999703 4.331638 3.665879 -3.923571 2.152531 -8.809198 5.443166 -37.705433 -23.963291 -34.390129 0.293818 -37.836243 -37.188068 -25.096191 -25.118038 5.392650 -2.267792 -8.664069 -6.272050 39.618835 -24.318205 37.674690 0.365535 -36.343010 25.704504 20.292150 -18.444990 -54.851936 14.022185 1.400302 128.881622 4.934641 -0.202170 8.577191 -0.536677 6.919988 -44.425373 -14.296376 -3.156471 113.557739 -3.573772 0.975628 8.589623 1.026001 -6.877892 
0.000000 5.071640 -0.109740 -89.002243 0.000000 0.000000 -2.433245 -0.817817 -0.896436 12.198906 0.093859 -1.226576 -1.141508 2.903073 0.507610 7.375153 3.383293 3.038518 -4.752696 1.410732 -8.468095 5.301635 -40.135017 -24.091152 -38.818287 -2.512324 -38.922173 -38.042042 -25.435690 -22.540081 5.882490 -1.488559 -8.335060 -5.978923 41.665657 -24.386570 41.307304 3.145459 -37.429695 28.761728 21.713293 -17.368742 -54.941021 13.238734 1.058199 128.881622 4.934641 -0.202170 8.589484 -0.245634 6.062573 -44.548897 -13.537775 -2.640160 113.557739 -3.573772 0.975628 8.592453 0.637767 -6.031637 
0.000000 5.071640 -0.082305 -89.002243 0.000000 0.000000 -1.881669 -0.799000 -0.860622 11.280068 0.029770 -1.202772 0.650192 2.168473 0.414172 10.768089 2.470838 2.354767 -5.576611 0.664624 -8.138073 5.162521 -42.557098 -24.215330 -43.293842 -5.214038 -40.219753 -38.911755 -25.739164 -19.957617 6.367480 -0.706952 -8.012977 -5.680048 43.708015 -24.442629 45.018406 5.859200 -38.699799 31.880646 23.079319 -16.199903 -55.024994 12.455082 0.718540 128.881622 4.934641 -0.202170 8.606119 0.045064 5.205476 -44.664982 -12.778465 -2.127348 113.557739 -3.573772 0.975628 8.601005 0.249796 -5.185795 
0.000000 5.071640 -0.054870 -89.002243 0.000000 0.000000 -1.330199 -0.780532 -0.824637 10.361739 -0.033892 -1.177957 2.437721 1.439040 0.298174 14.173183 1.599607 1.617813 -6.395411 -0.085450 -7.819122 5.025634 -44.969551 -24.335852 -47.613876 -8.111385 -40.964977 -39.794476 -26.005953 -17.374044 6.847721 0.076834 -7.697743 -5.374207 45.744545 -24.485325 48.811157 8.484292 -40.152195 35.059097 24.382908 -14.940203 -55.103947 11.671350 0.381213 128.881622 4.934641 -0.202170 8.627091 0.335318 4.348763 -44.773716 -12.018608 -1.617891 113.557739 -3.573772 0.975628 8.615275 -0.137775 -4.340405 
0.000000 5.071640 -0.027435 -89.002243 0.000000 0.000000 -0.778861 -0.762416 -0.788485 9.444034 -0.097104 -1.152145 4.220647 0.715864 0.159979 17.584745 0.774523 0.831446 -7.209200 -0.839148 -7.511227 4.890767 -47.370239 -24.452692 -52.017414 -10.949874 -41.938778 -40.687366 -26.235601 -14.792805 7.323322 0.862599 -7.389298 -5.059989 47.773914 -24.513428 52.686600 10.998750 -41.783669 38.293991 25.617090 -13.592473 -55.177933 10.887653 0.046110 128.881622 4.934641 -0.202170 8.652381 0.625028 3.492495 -44.875191 -11.258364 -1.111645 113.557739 -3.573772 0.975628 8.635248 -0.524814 -3.495499 
0.000000 5.071640 0.000000 -89.002243 0.000000 0.000000 -0.227682 -0.744654 -0.752171 8.527067 -0.159841 -1.125345 5.998535 0.000000 0.000000 20.996786 0.000000 0.000000 -8.018090 -1.596131 -7.214373 4.757692 -49.757137 -24.565813 -56.507805 -13.699747 -43.141632 -41.587551 -26.427902 -12.217385 7.794390 1.650150 -7.087573 -4.735743 49.794800 -24.525433 56.440536 13.658357 -43.146553 41.581097 26.775318 -12.160684 -55.247040 10.104111 -0.286881 128.881622 4.934641 -0.202170 8.681975 0.914092 2.636735 -44.969486 -10.497895 -0.608469 113.557739 -3.573772 0.975628 8.660902 -0.911184 -2.651110 
0.000000 5.071640 -0.058789 -89.002243 0.000000 0.000000 -1.369728 -0.744432 -0.752526 10.666103 -0.159927 -1.125246 4.713468 0.000000 0.000000 18.999840 0.000000 0.000000 -8.322232 -1.189274 -8.048229 4.757692 -49.757137 -24.565813 -56.076752 -13.636629 -43.039913 -41.698467 -26.733353 -12.095992 8.137394 1.239112 -7.915408 -4.735742 49.794800 -24.525431 56.030277 13.597641 -43.052422 41.639694 27.064896 -12.060215 -55.247040 10.104111 -0.286881 128.881622 4.934641 -0.202170 8.681975 0.914092 2.636735 -44.969486 -10.497896 -0.608469 113.557739 -3.573772 0.975628 8.660902 -0.911184 -2.651110 
0.000000 5.071640 -0.117579 -89.002243 0.000000 0.000000 -2.512344 -0.744217 -0.752885 12.808889 -0.160017 -1.125151 3.427588 0.000000 0.000000 16.999846 0.000000 0.000000 -8.620490 -0.777893 -8.880109 4.757692 -49.757137 -24.565813 -55.645912 -13.572767 -42.938721 -41.810406 -27.038591 -11.973598 8.474501 0.823019 -8.740964 -4.735742 49.794800 -24.525434 55.620190 13.536267 -42.958748 41.699028 27.354393 -11.959148 -55.247044 10.104112 -0.286881 128.881622 4.934641 -0.202170 8.681975 0.914092 2.636735 -44.969486 -10.497895 -0.608469 113.557739 -3.573772 0.975628 8.660902 -0.911184 -2.651110 
0.000000 5.071640 -0.176368 -89.002243 0.000000 0.000000 -3.655300 -0.744009 -0.753249 14.953924 -0.160111 -1.125059 2.141223 0.000000 0.000000 14.998025 0.000000 0.000000 -8.912786 -0.362142 -9.709957 4.757692 -49.757137 -24.565815 -55.215279 -13.508163 -42.838047 -41.923389 -27.343630 -11.850198 8.805624 0.402027 -9.564173 -4.735742 49.794800 -24.525431 55.210304 13.474243 -42.865562 41.759087 27.643797 -11.857475 -55.247040 10.104111 -0.286881 128.881622 4.934641 -0.202170 8.681975 0.914092 2.636735 -44.969486 -10.497896 -0.608469 113.557739 -3.573772 0.975628 8.660902 -0.911184 -2.651110 
0.000000 5.071640 -0.235158 -89.002243 0.000000 0.000000 -4.798368 -0.743809 -0.753617 17.099710 -0.160208 -1.124970 0.854697 0.000000 0.000000 12.995587 0.000000 0.000000 -9.199041 0.057823 -10.537716 4.757693 -49.757137 -24.565815 -54.784878 -13.442826 -42.737892 -42.037422 -27.648441 -11.725770 9.130681 -0.023703 -10.384974 -4.735744 49.794804 -24.525433 54.800617 13.411566 -42.772846 41.819893 27.933115 -11.755185 -55.247040 10.104112 -0.286881 128.881622 4.934641 -0.202170 8.681975 0.914092 2.636735 -44.969486 -10.497895 -0.608469 113.557739 -3.573772 0.975628 8.660902 -0.911184 -2.651110 
0.000000 5.071640 -0.293947 -89.002243 0.000000 0.000000 -5.941324 -0.743616 -0.753989 19.244751 -0.160308 -1.124886 -0.431668 0.000000 0.000000 10.993762 0.000000 0.000000 -9.479193 0.481845 -11.363337 4.757692 -49.757137 -24.565813 -54.354713 -13.376759 -42.638275 -42.152531 -27.953041 -11.600310 9.449590 -0.454007 -11.203314 -4.735743 49.794807 -24.525434 54.391155 13.348250 -42.680630 41.881447 28.222328 -11.652274 -55.247040 10.104111 -0.286881 128.881622 4.934641 -0.202170 8.681975 0.914092 2.636735 -44.969486 -10.497896 -0.608469 113.557739 -3.573772 0.975628 8.660902 -0.911184 -2.651110 
0.000000 5.071640 -0.352736 -89.002243 0.000000 0.000000 -7.083940 -0.743430 -0.754364 21.387531 -0.160411 -1.124804 -1.717546 0.000000 0.000000 8.993773 0.000000 0.000000 -9.753170 0.909762 -12.186769 4.757692 -49.757137 -24.565813 -53.924809 -13.309973 -42.539207 -42.268726 -28.257410 -11.473804 9.762282 -0.888720 -12.019137 -4.735744 49.794807 -24.525434 53.981926 13.284300 -42.588909 41.943764 28.511446 -11.548729 -55.247047 10.104112 -0.286881 128.881622 4.934641 -0.202170 8.681975 0.914092 2.636735 -44.969490 -10.497896 -0.608470 113.557739 -3.573772 0.975628 8.660903 -0.911185 -2.651110 
0.000000 5.071640 -0.411526 -89.002243 0.000000 0.000000 -8.225986 -0.743252 -0.754743 23.526567 -0.160517 -1.124727 -3.002615 0.000000 0.000000 6.996825 0.000000 0.000000 -10.020912 1.341412 -13.007975 4.757689 -49.757133 -24.565809 -53.495174 -13.242467 -42.440689 -42.386005 -28.561531 -11.346233 10.068686 -1.327673 -12.832400 -4.735742 49.794796 -24.525427 53.572929 13.219716 -42.497684 42.006828 28.800440 -11.444543 -55.247040 10.104111 -0.286881 128.881622 4.934641 -0.202170 8.681974 0.914092 2.636735 -44.969486 -10.497894 -0.608469 113.557739 -3.573772 0.975628 8.660902 -0.911184 -2.651110 
0.000000 5.071640 -0.352736 -89.002243 0.000000 0.000000 -7.083940 -0.743430 -0.754364 21.387533 -0.160411 -1.124804 -1.717546 0.000000 0.000000 8.993773 0.000000 0.000000 -9.753170 0.909762 -12.186769 4.757690 -49.757133 -24.565811 -53.924816 -13.309972 -42.539215 -42.268726 -28.257412 -11.473804 9.762282 -0.888720 -12.019137 -4.735743 49.794800 -24.525433 53.981926 13.284300 -42.588909 41.943764 28.511446 -11.548729 -55.247036 10.104109 -0.286881 128.881622 4.934641 -0.202170 8.681975 0.914092 2.636735 -44.969486 -10.497895 -0.608469 113.557739 -3.573772 0.975628 8.660901 -0.911184 -2.651110 
0.000000 5.071640 -0.293947 -89.002243 0.000000 0.000000 -5.941324 -0.743616 -0.753989 19.244751 -0.160308 -1.124886 -0.431668 0.000000 0.000000 10.993762 0.000000 0.000000 -9.479193 0.481845 -11.363337 4.757691 -49.757133 -24.565813 -54.354713 -13.376759 -42.638275 -42.152534 -27.953043 -11.600310 9.449590 -0.454007 -11.203314 -4.735743 49.794800 -24.525433 54.391159 13.348250 -42.680630 41.881451 28.222332 -11.652274 -55.247040 10.104110 -0.286880 128.881622 4.934641 -0.202170 8.681974 0.914092 2.636735 -44.969486 -10.497895 -0.608469 113.557739 -3.573772 0.975628 8.660902 -0.911184 -2.651110 
0.000000 5.071640 -0.235158 -89.002243 0.000000 0.000000 -4.798368 -0.743809 -0.753617 17.099710 -0.160208 -1.124970 0.854697 0.000000 0.000000 12.995588 0.000000 0.000000 -9.199043 0.057823 -10.537718 4.757692 -49.757137 -24.565813 -54.784878 -13.442826 -42.737892 -42.037426 -27.648449 -11.725771 9.130679 -0.023702 -10.384973 -4.735743 49.794800 -24.525433 54.800629 13.411568 -42.772858 41.819893 27.933111 -11.755184 -55.247040 10.104111 -0.286881 128.881622 4.934641 -0.202170 8.681975 0.914092 2.636735 -44.969486 -10.497895 -0.608469 113.557739 -3.573772 0.975628 8.660902 -0.911184 -2.651110 
0.000000 5.071640 -0.176368 -89.002243 0.000000 0.000000 -3.655298 -0.744009 -0.753249 14.953922 -0.160111 -1.125059 2.141224 0.000000 0.000000 14.998023 0.000000 0.000000 -8.912786 -0.362142 -9.709957 4.757692 -49.757137 -24.565813 -55.215275 -13.508160 -42.838039 -41.923386 -27.343624 -11.850193 8.805624 0.402028 -9.564173 -4.735743 49.794800 -24.525433 55.210304 13.474242 -42.865562 41.759087 27.643797 -11.857475 -55.247040 10.104111 -0.286881 128.881622 4.934641 -0.202170 8.681975 0.914092 2.636735 -44.969486 -10.497895 -0.608469 113.557739 -3.573772 0.975628 8.660900 -0.911184 -2.651110 
0.000000 5.071640 -0.117579 -89.002243 0.000000 0.000000 -2.512343 -0.744217 -0.752885 12.808888 -0.160017 -1.125151 3.427588 0.000000 0.000000 16.999844 0.000000 0.000000 -8.620489 -0.777894 -8.880108 4.757692 -49.757137 -24.565813 -55.645908 -13.572768 -42.938721 -41.810398 -27.038588 -11.973595 8.474502 0.823019 -8.740965 -4.735741 49.794796 -24.525431 55.620193 13.536269 -42.958759 41.699036 27.354399 -11.959151 -55.247036 10.104111 -0.286881 128.881622 4.934641 -0.202170 8.681975 0.914092 2.636735 -44.969486 -10.497895 -0.608469 113.557739 -3.573772 0.975628 8.660902 -0.911184 -2.651110 
